<?xml version="1.0" encoding="utf-8"?>
<!-- Generator: Adobe Illustrator 25.4.1, SVG Export Plug-In . SVG Version: 6.00 Build 0)  -->
<svg version="1.1" id="Layer_1" xmlns="http://www.w3.org/2000/svg" xmlns:xlink="http://www.w3.org/1999/xlink" x="0px" y="0px"
	 viewBox="0 0 205 67" style="enable-background:new 0 0 205 67;" xml:space="preserve">
<style type="text/css">
	.st0{fill:#104D92;}
	.st1{fill:#E87029;}
	.st2{fill:none;stroke:#104D92;stroke-width:1.8335;stroke-miterlimit:10;}
	.st3{fill:#20458B;}
	.st4{fill:none;stroke:#293D88;stroke-width:0.7787;stroke-miterlimit:10;}
	.st5{fill:none;stroke:#293D88;stroke-width:0.7073;stroke-miterlimit:10;}
	.st6{fill:none;stroke:#104D92;stroke-width:1.4006;stroke-miterlimit:10;}
	.st7{font-family:'Montserrat-Medium';}
	.st8{font-size:5.8641px;}
	.st9{fill:none;stroke:#293D88;stroke-width:0.5948;stroke-miterlimit:10;}
	.st10{fill:none;stroke:#293D88;stroke-width:0.5403;stroke-miterlimit:10;}
	.st11{fill:none;stroke:#104D92;stroke-width:3.8786;stroke-miterlimit:10;}
	.st12{fill:none;stroke:#293D88;stroke-width:1.6473;stroke-miterlimit:10;}
	.st13{fill:#27AAE2;}
	.st14{fill:none;stroke:#000000;stroke-width:1.8886;stroke-miterlimit:10;}
	.st15{fill:none;stroke:#000000;stroke-width:0.8021;stroke-miterlimit:10;}
	.st16{fill:none;stroke:#000000;stroke-width:0.7286;stroke-miterlimit:10;}
	.st17{fill:none;stroke:#000000;stroke-width:1.3871;stroke-miterlimit:10;}
	.st18{fill:none;stroke:#000000;stroke-width:0.5891;stroke-miterlimit:10;}
	.st19{fill:none;stroke:#000000;stroke-width:0.5351;stroke-miterlimit:10;}
	.st20{fill:#FFFFFF;}
	.st21{fill:none;stroke:#FFFFFF;stroke-width:1.8886;stroke-miterlimit:10;}
	.st22{fill:none;stroke:#FFFFFF;stroke-width:0.8021;stroke-miterlimit:10;}
	.st23{fill:none;stroke:#FFFFFF;stroke-width:0.7286;stroke-miterlimit:10;}
	.st24{fill:none;stroke:#FFFFFF;stroke-width:1.4147;stroke-miterlimit:10;}
	.st25{fill:none;stroke:#FFFFFF;stroke-width:0.6008;stroke-miterlimit:10;}
	.st26{fill:none;stroke:#FFFFFF;stroke-width:0.5457;stroke-miterlimit:10;}
	.st27{fill:url(#SVGID_1_);}
	.st28{fill:url(#SVGID_00000027586202194822066690000013403372861970524859_);}
	.st29{fill:#F9F048;}
</style>
<g>
	<g>
		<g>
			<g>
				<path class="st0" d="M56.51,45.7v3.76H55.3v-7.85h1.21v3.58h3.61v-3.58h1.21v7.85h-1.21V45.7H56.51z"/>
				<path class="st0" d="M66.78,49.64c-0.37,0-0.73-0.05-1.07-0.15c-0.34-0.1-0.66-0.24-0.95-0.42c-0.29-0.18-0.56-0.4-0.8-0.65
					c-0.24-0.25-0.45-0.53-0.61-0.84c-0.17-0.31-0.3-0.64-0.39-0.99c-0.09-0.35-0.14-0.72-0.14-1.1c0-0.38,0.05-0.74,0.14-1.08
					c0.09-0.35,0.22-0.67,0.39-0.97c0.17-0.3,0.37-0.57,0.61-0.82c0.24-0.25,0.51-0.46,0.8-0.63c0.29-0.18,0.61-0.31,0.95-0.41
					c0.34-0.1,0.69-0.14,1.07-0.14s0.73,0.05,1.07,0.14c0.34,0.1,0.66,0.23,0.95,0.41c0.29,0.18,0.56,0.39,0.8,0.63
					c0.24,0.25,0.44,0.52,0.61,0.82c0.17,0.3,0.3,0.62,0.39,0.97c0.09,0.34,0.14,0.7,0.14,1.08c0,0.38-0.05,0.75-0.14,1.1
					c-0.09,0.36-0.22,0.69-0.39,0.99c-0.17,0.31-0.37,0.59-0.61,0.84c-0.24,0.25-0.51,0.47-0.8,0.65c-0.29,0.18-0.61,0.32-0.95,0.42
					C67.51,49.59,67.16,49.64,66.78,49.64z M66.78,49.25c0.41,0,0.77-0.09,1.09-0.28c0.32-0.19,0.58-0.45,0.8-0.78
					c0.21-0.33,0.38-0.73,0.49-1.19c0.11-0.46,0.17-0.96,0.17-1.51c0-0.54-0.06-1.03-0.17-1.48c-0.11-0.45-0.28-0.84-0.49-1.16
					c-0.22-0.32-0.48-0.58-0.8-0.76c-0.32-0.18-0.68-0.27-1.09-0.27c-0.42,0-0.79,0.09-1.11,0.27c-0.32,0.18-0.58,0.43-0.8,0.76
					c-0.21,0.33-0.37,0.71-0.48,1.16c-0.11,0.45-0.16,0.94-0.16,1.48c0,0.54,0.05,1.05,0.16,1.51c0.11,0.46,0.27,0.86,0.48,1.19
					c0.21,0.33,0.48,0.59,0.8,0.78C66,49.16,66.37,49.25,66.78,49.25z"/>
				<path class="st0" d="M72.24,41.61h1.23l2.8,6.02h0.06l2.74-6.02h1.21v7.85h-1.21v-6.43h-0.04l-2.95,6.43h-0.25l-2.98-6.38h-0.08
					v6.38h-0.53V41.61z"/>
				<path class="st0" d="M87.09,41.61v0.51H83.3v2.81h2.53v0.51H83.3v3.52h3.79v0.51h-4.99v-7.85H87.09z"/>
				<path class="st0" d="M96.52,41.61v0.51h-3.79v2.81h2.53v0.51h-2.53v3.52h3.79v0.51h-4.99v-7.85H96.52z"/>
				<path class="st0" d="M97.86,41.61h1.21v7.34h3.62v0.51h-4.82V41.61z"/>
				<path class="st0" d="M108.68,41.61v0.51h-3.79v2.81h2.53v0.51h-2.53v3.52h3.79v0.51h-4.99v-7.85H108.68z"/>
				<path class="st0" d="M110.41,41.61l2.71,6.24l2.52-6.24h0.57l-3.26,8.03h-0.31l-3.5-8.03H110.41z"/>
				<path class="st0" d="M119.27,41.43l3.38,8.03h-1.23l-1.1-2.62h-3.08l-1.13,2.62h-0.6l3.46-8.03H119.27z M117.46,46.33h2.65
					l-1.3-3.1L117.46,46.33z"/>
				<path class="st0" d="M128.55,41.61v0.51h-2.6v7.34h-1.21v-7.34h-2.6v-0.51H128.55z"/>
				<path class="st0" d="M132.98,49.64c-0.37,0-0.73-0.05-1.07-0.15c-0.34-0.1-0.66-0.24-0.95-0.42c-0.29-0.18-0.56-0.4-0.8-0.65
					c-0.24-0.25-0.45-0.53-0.61-0.84c-0.17-0.31-0.3-0.64-0.39-0.99c-0.09-0.35-0.14-0.72-0.14-1.1c0-0.38,0.05-0.74,0.14-1.08
					c0.09-0.35,0.22-0.67,0.39-0.97c0.17-0.3,0.37-0.57,0.61-0.82c0.24-0.25,0.51-0.46,0.8-0.63c0.29-0.18,0.61-0.31,0.95-0.41
					c0.34-0.1,0.69-0.14,1.07-0.14s0.73,0.05,1.07,0.14c0.34,0.1,0.66,0.23,0.95,0.41c0.29,0.18,0.56,0.39,0.8,0.63
					c0.24,0.25,0.44,0.52,0.61,0.82c0.17,0.3,0.3,0.62,0.39,0.97c0.09,0.34,0.14,0.7,0.14,1.08c0,0.38-0.05,0.75-0.14,1.1
					c-0.09,0.36-0.22,0.69-0.39,0.99c-0.17,0.31-0.37,0.59-0.61,0.84c-0.24,0.25-0.51,0.47-0.8,0.65c-0.29,0.18-0.61,0.32-0.95,0.42
					C133.71,49.59,133.36,49.64,132.98,49.64z M132.98,49.25c0.41,0,0.77-0.09,1.09-0.28c0.32-0.19,0.58-0.45,0.8-0.78
					c0.21-0.33,0.38-0.73,0.49-1.19c0.11-0.46,0.17-0.96,0.17-1.51c0-0.54-0.06-1.03-0.17-1.48c-0.11-0.45-0.28-0.84-0.49-1.16
					c-0.22-0.32-0.48-0.58-0.8-0.76c-0.32-0.18-0.68-0.27-1.09-0.27c-0.42,0-0.79,0.09-1.11,0.27c-0.32,0.18-0.58,0.43-0.8,0.76
					c-0.21,0.33-0.37,0.71-0.48,1.16c-0.11,0.45-0.16,0.94-0.16,1.48c0,0.54,0.05,1.05,0.16,1.51c0.11,0.46,0.27,0.86,0.48,1.19
					c0.21,0.33,0.48,0.59,0.8,0.78C132.2,49.16,132.57,49.25,132.98,49.25z"/>
				<path class="st0" d="M138.44,41.61h2.49c0.43,0,0.81,0.05,1.14,0.15c0.33,0.1,0.6,0.24,0.81,0.43c0.22,0.18,0.38,0.4,0.49,0.65
					c0.11,0.25,0.16,0.53,0.16,0.82c0,0.24-0.04,0.47-0.13,0.69c-0.08,0.21-0.2,0.4-0.36,0.57c-0.16,0.17-0.34,0.32-0.56,0.44
					c-0.22,0.13-0.46,0.22-0.72,0.29l2.61,3.81h-1.4l-2.5-3.69h-0.85v3.69h-1.21V41.61z M139.65,45.37h0.7
					c0.27,0,0.52-0.04,0.75-0.12c0.23-0.08,0.43-0.19,0.59-0.34c0.17-0.14,0.3-0.32,0.4-0.53c0.1-0.21,0.14-0.44,0.14-0.69
					c0-0.23-0.04-0.45-0.11-0.65c-0.07-0.2-0.18-0.37-0.31-0.51c-0.13-0.14-0.3-0.25-0.48-0.33c-0.19-0.08-0.39-0.12-0.61-0.12
					h-1.06V45.37z"/>
				<path class="st0" d="M147.26,49.14c0.18,0,0.36-0.03,0.53-0.08c0.17-0.05,0.33-0.13,0.46-0.24c0.13-0.1,0.24-0.23,0.33-0.39
					c0.08-0.15,0.12-0.33,0.12-0.53c0-0.24-0.06-0.45-0.17-0.64c-0.11-0.19-0.26-0.36-0.45-0.52c-0.19-0.16-0.4-0.3-0.63-0.44
					s-0.48-0.28-0.72-0.42c-0.25-0.14-0.49-0.28-0.72-0.43c-0.24-0.15-0.45-0.32-0.63-0.51c-0.18-0.19-0.33-0.39-0.45-0.63
					c-0.11-0.23-0.17-0.49-0.17-0.8c0-0.3,0.05-0.58,0.15-0.84c0.1-0.26,0.26-0.48,0.46-0.67c0.2-0.19,0.44-0.33,0.73-0.44
					c0.29-0.11,0.63-0.16,1-0.16c0.68,0,1.22,0.16,1.61,0.47c0.39,0.31,0.68,0.76,0.85,1.35l-0.62,0.31
					c-0.07-0.24-0.16-0.46-0.28-0.66c-0.11-0.2-0.25-0.37-0.4-0.51c-0.16-0.14-0.34-0.25-0.54-0.33c-0.2-0.08-0.43-0.12-0.69-0.12
					c-0.23,0-0.43,0.03-0.59,0.1c-0.17,0.07-0.31,0.16-0.42,0.27c-0.11,0.11-0.2,0.24-0.25,0.38c-0.06,0.14-0.09,0.28-0.09,0.43
					c0,0.21,0.06,0.39,0.18,0.57c0.12,0.17,0.27,0.33,0.46,0.49c0.19,0.15,0.4,0.3,0.65,0.44c0.24,0.14,0.49,0.28,0.75,0.43
					c0.25,0.15,0.5,0.3,0.75,0.46c0.24,0.16,0.46,0.33,0.65,0.52c0.19,0.19,0.34,0.39,0.46,0.62c0.12,0.22,0.18,0.47,0.18,0.75
					c0,0.31-0.06,0.6-0.16,0.88c-0.11,0.27-0.27,0.51-0.49,0.72c-0.22,0.2-0.49,0.37-0.81,0.49c-0.32,0.12-0.69,0.18-1.12,0.18
					c-0.34,0-0.65-0.04-0.92-0.12c-0.27-0.08-0.51-0.2-0.72-0.36c-0.21-0.16-0.39-0.35-0.53-0.58c-0.15-0.23-0.27-0.49-0.37-0.78
					l0.65-0.29c0.07,0.26,0.18,0.49,0.3,0.69c0.13,0.2,0.28,0.37,0.45,0.52c0.17,0.14,0.36,0.25,0.57,0.32
					C146.8,49.1,147.03,49.14,147.26,49.14z"/>
			</g>
		</g>
		<g>
			<path class="st1" d="M36.64,54.09v8.66h-0.66l-4.89-7.03v7.03h-0.81v-8.66h0.66l4.9,7.03v-7.03H36.64z"/>
			<path class="st1" d="M38.39,59.5c0-1.93,1.24-3.31,2.91-3.31c1.67,0,2.9,1.37,2.9,3.31c0,1.93-1.23,3.32-2.9,3.32
				C39.62,62.82,38.39,61.43,38.39,59.5z M43.42,59.5c0-1.52-0.9-2.54-2.12-2.54c-1.22,0-2.13,1.01-2.13,2.54
				c0,1.52,0.91,2.54,2.13,2.54C42.52,62.04,43.42,61.02,43.42,59.5z"/>
			<path class="st1" d="M54.01,56.25l-2.16,6.51h-0.73l-1.8-5.34l-1.81,5.34h-0.73l-2.15-6.51h0.74l1.79,5.53L49,56.25h0.66
				l1.82,5.53l1.82-5.53H54.01z"/>
			<path class="st1" d="M58.19,54.09H59v7.87h4.26v0.79h-5.06V54.09z"/>
			<path class="st1" d="M69.51,56.25v6.51h-0.74v-1.19c-0.4,0.79-1.14,1.25-2.05,1.25c-1.46,0-2.41-0.93-2.41-2.8v-3.77h0.77v3.69
				c0,1.39,0.63,2.09,1.72,2.09c1.2,0,1.95-0.88,1.95-2.36v-3.41H69.51z"/>
			<path class="st1" d="M75.31,62.76l-1.81-2.72l-1.83,2.72H70.8l2.26-3.34l-2.15-3.17h0.87l1.72,2.55l1.72-2.55h0.85l-2.15,3.17
				l2.28,3.34H75.31z"/>
			<path class="st1" d="M82.53,56.25v6.51h-0.74v-1.19c-0.4,0.79-1.14,1.25-2.05,1.25c-1.46,0-2.41-0.93-2.41-2.8v-3.77h0.77v3.69
				c0,1.39,0.63,2.09,1.72,2.09c1.2,0,1.95-0.88,1.95-2.36v-3.41H82.53z"/>
			<path class="st1" d="M87.57,56.2v0.86c-0.07,0-0.13-0.01-0.19-0.01c-1.2,0-1.92,0.87-1.92,2.4v3.32h-0.77v-6.51h0.74v1.27
				C85.79,56.66,86.52,56.2,87.57,56.2z"/>
			<path class="st1" d="M94.02,56.25l-2.86,7.29c-0.48,1.27-1.09,1.68-1.9,1.68c-0.53,0-1.04-0.2-1.39-0.59l0.36-0.66
				c0.28,0.32,0.63,0.5,1.04,0.5c0.51,0,0.86-0.27,1.19-1.09l0.25-0.63l-2.55-6.5h0.8l2.15,5.53l2.15-5.53H94.02z"/>
			<path class="st1" d="M97.78,54.19c0-0.33,0.25-0.62,0.56-0.62c0.32,0,0.57,0.27,0.57,0.61c0,0.36-0.24,0.64-0.57,0.64
				C98.03,54.82,97.78,54.54,97.78,54.19z M97.96,56.25h0.77v6.51h-0.77V56.25z"/>
			<path class="st1" d="M106.14,58.98v3.77h-0.77v-3.69c0-1.37-0.63-2.08-1.72-2.08c-1.23,0-2,0.87-2,2.35v3.42h-0.77v-6.51h0.74
				v1.2c0.41-0.79,1.18-1.25,2.17-1.25C105.19,56.2,106.14,57.11,106.14,58.98z"/>
			<path class="st1" d="M116.63,61.96v0.79h-5.38v-8.66h5.22v0.79h-4.41v3.08h3.93v0.78h-3.93v3.22H116.63z"/>
			<path class="st1" d="M123.07,56.25l-2.54,6.51h-0.79l-2.53-6.51h0.8l2.14,5.55l2.16-5.55H123.07z"/>
			<path class="st1" d="M128.98,59.77h-4.78c0.09,1.36,1,2.26,2.25,2.26c0.7,0,1.32-0.28,1.75-0.85l0.43,0.57
				c-0.51,0.69-1.3,1.06-2.21,1.06c-1.78,0-3-1.39-3-3.32c0-1.93,1.18-3.31,2.79-3.31c1.61,0,2.77,1.35,2.77,3.31
				C128.99,59.58,128.98,59.68,128.98,59.77z M124.2,59.12h4.06c-0.1-1.28-0.91-2.17-2.03-2.17
				C125.11,56.95,124.3,57.84,124.2,59.12z"/>
			<path class="st1" d="M133.45,56.2v0.86c-0.07,0-0.13-0.01-0.19-0.01c-1.2,0-1.92,0.87-1.92,2.4v3.32h-0.77v-6.51h0.74v1.27
				C131.67,56.66,132.4,56.2,133.45,56.2z"/>
			<path class="st1" d="M139.9,56.25l-2.86,7.29c-0.48,1.27-1.09,1.68-1.9,1.68c-0.53,0-1.04-0.2-1.39-0.59l0.36-0.66
				c0.28,0.32,0.63,0.5,1.04,0.5c0.51,0,0.86-0.27,1.19-1.09l0.25-0.63l-2.55-6.5h0.8l2.15,5.53l2.15-5.53H139.9z"/>
			<path class="st1" d="M150.35,54.09v8.66h-0.79v-4h-4.76v4h-0.81v-8.66h0.81v3.86h4.76v-3.86H150.35z"/>
			<path class="st1" d="M152.09,59.5c0-1.93,1.24-3.31,2.91-3.31c1.67,0,2.9,1.37,2.9,3.31c0,1.93-1.23,3.32-2.9,3.32
				C153.33,62.82,152.09,61.43,152.09,59.5z M157.13,59.5c0-1.52-0.9-2.54-2.12-2.54c-1.22,0-2.13,1.01-2.13,2.54
				c0,1.52,0.91,2.54,2.13,2.54C156.22,62.04,157.13,61.02,157.13,59.5z"/>
			<path class="st1" d="M168.92,58.98v3.77h-0.77v-3.69c0-1.37-0.61-2.08-1.64-2.08c-1.17,0-1.91,0.87-1.91,2.35v3.42h-0.77v-3.69
				c0-1.37-0.61-2.08-1.65-2.08c-1.16,0-1.91,0.87-1.91,2.35v3.42h-0.77v-6.51h0.74v1.19c0.4-0.78,1.14-1.24,2.1-1.24
				c0.95,0,1.69,0.46,2.03,1.37c0.41-0.84,1.23-1.37,2.26-1.37C168.01,56.2,168.92,57.11,168.92,58.98z"/>
			<path class="st1" d="M176.03,59.77h-4.78c0.09,1.36,1,2.26,2.25,2.26c0.7,0,1.32-0.28,1.75-0.85l0.43,0.57
				c-0.51,0.69-1.3,1.06-2.21,1.06c-1.78,0-3-1.39-3-3.32c0-1.93,1.18-3.31,2.79-3.31c1.61,0,2.77,1.35,2.77,3.31
				C176.04,59.58,176.03,59.68,176.03,59.77z M171.25,59.12h4.06c-0.1-1.28-0.91-2.17-2.03-2.17
				C172.16,56.95,171.35,57.84,171.25,59.12z"/>
		</g>
		<g>
			<path class="st6" d="M62.3,34.79H46.32c0.3-15.57-13.65-31.84-37.84-32.2C36.13,0.76,62.54,15.85,62.3,34.79z"/>
			<path class="st0" d="M159.28,8h10.31c-0.09,0.3-0.14,0.51-0.14,0.65c0,0.17,0.05,0.41,0.14,0.73l4.82,16.84l5.25-16.82
				c0.09-0.31,0.13-0.56,0.13-0.75c0-0.14-0.05-0.35-0.13-0.65h4.94c-0.3,0.34-0.55,0.79-0.75,1.37l-7.63,24.87
				c-0.14,0.46-0.22,0.82-0.22,1.07c0,0.06,0.01,0.16,0.02,0.3h-8.54c0.03-0.19,0.04-0.31,0.04-0.37c0-0.24-0.07-0.58-0.2-1.01
				l-7.37-24.85C159.79,8.81,159.56,8.35,159.28,8 M144.09,24.46h4.81l-2.35-7.99L144.09,24.46z M142.65,28.63l-1.89,5.61
				c-0.15,0.47-0.24,0.82-0.24,1.05c0,0.06,0.02,0.17,0.06,0.32h-4.87c0.3-0.32,0.56-0.78,0.77-1.37l8.46-24.87
				c0.17-0.48,0.26-0.84,0.26-1.07c0-0.06-0.01-0.16-0.04-0.3h7.63c-0.01,0.12-0.02,0.2-0.02,0.24c0,0.21,0.09,0.59,0.28,1.13
				l8.65,24.87c0.22,0.59,0.5,1.05,0.85,1.37h-10.37c0.03-0.16,0.04-0.27,0.04-0.32c0-0.27-0.07-0.62-0.2-1.05l-1.78-5.61H142.65z
				 M123.38,31.75h0.98c0.74,0,1.28-0.3,1.62-0.89c0.34-0.59,0.51-1.53,0.51-2.83c0-1.53-0.16-2.61-0.48-3.27
				c-0.32-0.66-0.85-0.98-1.61-0.98h-1.02V31.75z M123.38,19.9h0.75c0.84,0,1.43-0.3,1.76-0.91c0.34-0.61,0.5-1.67,0.5-3.2
				c0-1.34-0.18-2.31-0.55-2.93c-0.37-0.61-0.96-0.92-1.77-0.92h-0.69V19.9z M114.01,8h13.96c2.26,0,4.03,0.61,5.32,1.82
				c1.24,1.19,1.87,2.93,1.87,5.22c0,2.45-0.73,4.17-2.19,5.14c-0.46,0.3-1.25,0.64-2.37,1.04c1.45,0.33,2.56,0.89,3.33,1.68
				c1.12,1.15,1.68,2.8,1.68,4.95c0,3.03-1,5.19-3.01,6.51c-1.29,0.84-2.81,1.26-4.55,1.26h-14.03c0.17-0.35,0.26-0.82,0.28-1.4
				V9.37C114.27,8.75,114.18,8.29,114.01,8 M100.33,8h9.64c-0.17,0.32-0.26,0.78-0.28,1.37v24.87c0.01,0.59,0.11,1.05,0.28,1.37
				h-9.64c0.17-0.32,0.26-0.78,0.28-1.37V9.37C100.6,8.78,100.5,8.32,100.33,8 M76.48,19.25v15c0.01,0.59,0.11,1.05,0.28,1.37h-4.62
				c0.17-0.35,0.26-0.81,0.28-1.37V9.37C72.4,8.75,72.31,8.29,72.14,8h7.79c0.06,0.34,0.31,0.8,0.75,1.4l11.35,15.3V9.39
				c-0.01-0.58-0.11-1.04-0.28-1.4h4.6c-0.13,0.17-0.21,0.33-0.24,0.46c-0.03,0.14-0.04,0.44-0.04,0.91v24.85
				c0,0.44,0.09,0.91,0.28,1.4h-7.91c-0.11-0.34-0.37-0.8-0.79-1.4L76.48,19.25z"/>
			<path class="st6" d="M30.29,34.79h15.98C45.97,19.23,59.92,2.96,84.1,2.59C56.46,0.76,30.05,15.85,30.29,34.79z"/>
		</g>
		<g>
			<text transform="matrix(0.9379 0 0 1 187.7417 7.5355)" class="st0 st7 st8">R</text>
		</g>
		<path class="st3" d="M30.81,45.54c0,0.42-0.32,0.76-0.71,0.76c-0.39,0-0.71-0.34-0.71-0.76c0-0.42,0.32-0.76,0.71-0.76
			C30.49,44.78,30.81,45.12,30.81,45.54"/>
		<path class="st3" d="M174.64,45.54c0,0.42,0.32,0.76,0.71,0.76c0.39,0,0.71-0.34,0.71-0.76c0-0.42-0.32-0.76-0.71-0.76
			C174.96,44.78,174.64,45.12,174.64,45.54"/>
		<line class="st9" x1="162.19" y1="45.54" x2="173.93" y2="45.54"/>
		<line class="st9" x1="31.87" y1="45.54" x2="43.62" y2="45.54"/>
		<path class="st10" d="M193.06,5.42c0,1.9-1.54,3.44-3.44,3.44c-1.9,0-3.44-1.54-3.44-3.44s1.54-3.44,3.44-3.44
			C191.52,1.98,193.06,3.52,193.06,5.42z"/>
	</g>
</g>
</svg>
